<?xml version="1.0" standalone="no"?><!DOCTYPE svg PUBLIC "-//W3C//DTD SVG 1.1//EN" "http://www.w3.org/Graphics/SVG/1.1/DTD/svg11.dtd"><svg t="1637849256651" class="icon" viewBox="0 0 1024 1024" version="1.1" xmlns="http://www.w3.org/2000/svg" p-id="33198" xmlns:xlink="http://www.w3.org/1999/xlink" width="200" height="200"><defs><style type="text/css"></style></defs><path d="M85.333333 640c71.253333-32 142.08-64 213.333334-78.08V213.333333a128 128 0 0 1 128-128c55.893333 0 103.253333 35.413333 120.746666 85.333334H426.666667a42.666667 42.666667 0 0 0-42.666667 42.666666v42.666667h213.333333V213.333333a128 128 0 0 1 128-128c55.893333 0 103.253333 35.413333 120.746667 85.333334H725.333333a42.666667 42.666667 0 0 0-42.666666 42.666666v424.106667c85.333333-13.653333 170.666667-82.773333 256-82.773333v85.333333c-94.72 0-189.44 85.333333-284.586667 85.333333-94.72 0-189.44-85.333333-284.16-85.333333-95.146667 0-189.866667 42.666667-284.586667 85.333333v-85.333333m512-298.666667H384v85.333334h213.333333V341.333333m0 170.666667H384v42.666667c71.253333 6.826667 142.08 55.893333 213.333333 76.373333V512M85.333333 810.666667c94.72-42.666667 189.44-85.333333 284.586667-85.333334 94.72 0 189.44 85.333333 284.16 85.333334 95.146667 0 189.866667-85.333333 284.586667-85.333334v85.333334c-94.72 0-189.44 85.333333-284.586667 85.333333-94.72 0-189.44-85.333333-284.16-85.333333-95.146667 0-189.866667 42.666667-284.586667 85.333333v-85.333333z" fill="#ffffff" p-id="33199"></path></svg>